<svg aria-hidden="true" style="position:absolute;width:0;height:0" xmlns="http://www.w3.org/2000/svg" overflow="hidden">

    <symbol id="icon-products-link" viewBox="0 0 32 32">
        <path
            d="M31.008 13.773l-10-9.002c-1.232-1.108-3.13-1.012-4.238 0.224-1.108 1.23-1.008 3.128 0.224 4.236l4.186 3.77h-18.18c-1.658 0-3 1.342-3 3s1.342 3 3 3h18.184l-4.192 3.77c-1.232 1.11-1.332 3.006-0.224 4.236 0.594 0.658 1.412 0.994 2.232 0.994 0.716 0 1.434-0.254 2.006-0.77l10-8.998c0.632-0.568 0.994-1.38 0.994-2.23s-0.362-1.662-0.992-2.23z">
        </path>
    </symbol>
    <symbol id="open-menu" viewBox="0 0 20 14">
        <g>
            <path d="M0 1H20" stroke="#D41443" />
            <path d="M0 7H20" stroke="#D41443" />
            <path d="M0 13H20" stroke="#D41443" />
        </g>
    </symbol>
    <symbol id="close-menu" viewBox="0 0 16 16">
        <g>
            <path d="M1.25928 1L14.7408 15" stroke="white" />
            <path d="M1 14.7407L15 1.25924" stroke="white" />
        </g>
    </symbol>
    <symbol id="icon-cross" viewBox="0 0 32 32">
<path d="M23.734 10.304l-1.504-1.504-5.963 5.962-5.962-5.962-1.504 1.504 5.962 5.962-5.962 5.963 1.504 1.504 5.962-5.963 5.963 5.963 1.504-1.504-5.963-5.963 5.963-5.962z"></path>
</symbol>
<symbol id="icon-location" viewBox="0 0 32 32">
<path d="M16 0c-5.523 0-10 4.477-10 10 0 10 10 22 10 22s10-12 10-22c0-5.523-4.477-10-10-10zM16 16.125c-3.383 0-6.125-2.742-6.125-6.125s2.742-6.125 6.125-6.125 6.125 2.742 6.125 6.125-2.742 6.125-6.125 6.125zM12.125 10c0-2.14 1.735-3.875 3.875-3.875s3.875 1.735 3.875 3.875c0 2.14-1.735 3.875-3.875 3.875s-3.875-1.735-3.875-3.875z"></path>
</symbol>
<symbol id="icon-user" viewBox="0 0 32 32">
<path d="M18 22.082v-1.649c2.203-1.241 4-4.337 4-7.432 0-4.971 0-9-6-9s-6 4.029-6 9c0 3.096 1.797 6.191 4 7.432v1.649c-6.784 0.555-12 3.888-12 7.918h28c0-4.030-5.216-7.364-12-7.918z"></path>
</symbol>
<symbol id="icon-phone" viewBox="0 0 32 32">
<path d="M31.793 18c0.25 1.734 0.413 4.106-0.364 5.014-1.286 1.501-9.428 1.501-9.428-1.501 0-1.512 1.339-2.504 0.053-4.006-1.265-1.477-3.532-1.501-6.054-1.501s-4.789 0.024-6.054 1.501c-1.286 1.501 0.054 2.493 0.054 4.006 0 3.003-8.143 3.003-9.429 1.501-0.777-0.908-0.615-3.28-0.364-5.014 0.193-1.157 0.679-2.406 2.236-4 0-0 0-0 0-0 2.336-2.179 5.87-3.961 13.432-3.999v-0.001c0.042 0 0.083 0 0.125 0s0.083-0 0.125-0v0.001c7.562 0.038 11.096 1.82 13.432 3.999 0 0 0 0 0 0 1.557 1.594 2.043 2.842 2.236 4z"></path>
</symbol>
<symbol id="icon-check" viewBox="0 0 42 32">
<path fill="#fff" style="fill: var(--color1, #fff); stroke: var(--color1, #fff)" stroke="#fff" stroke-linejoin="miter" stroke-linecap="butt" stroke-miterlimit="4" stroke-width="0.64" d="M6.262 15.206l-0.221-0.211-0.221 0.208-3.085 2.925 0.243 0.234 11.408 10.88 0.221-0.211 24.256-23.139-0.243-0.23-3.043-2.902-0.221 0.211-20.97 19.987-8.125-7.75z"></path>
</symbol>
<symbol id="icon-icon-send" viewBox="0 0 32 32">
            <path d="M32 0 0 18l10.227 3.788L26 7 14.002 23.186l.01.004-.012-.004V32l5.735-6.691L27 28l5-28z" />
        </symbol>
        <symbol id="icon-facebook" viewBox="0 0 32 32">
            <path d="M19 6h5V0h-5c-3.86 0-7 3.14-7 7v3H8v6h4v16h6V16h5l1-6h-6V7c0-.542.458-1 1-1z" />
        </symbol>
        <symbol id="icon-github" viewBox="0 0 32 32">
            <path
                d="M16 .395c-8.836 0-16 7.163-16 16 0 7.069 4.585 13.067 10.942 15.182.8.148 1.094-.347 1.094-.77 0-.381-.015-1.642-.022-2.979-4.452.968-5.391-1.888-5.391-1.888-.728-1.849-1.776-2.341-1.776-2.341-1.452-.993.11-.973.11-.973 1.606.113 2.452 1.649 2.452 1.649 1.427 2.446 3.743 1.739 4.656 1.33.143-1.034.558-1.74 1.016-2.14-3.554-.404-7.29-1.777-7.29-7.907 0-1.747.625-3.174 1.649-4.295-.166-.403-.714-2.03.155-4.234 0 0 1.344-.43 4.401 1.64a15.353 15.353 0 0 1 4.005-.539c1.359.006 2.729.184 4.008.539 3.054-2.07 4.395-1.64 4.395-1.64.871 2.204.323 3.831.157 4.234 1.026 1.12 1.647 2.548 1.647 4.295 0 6.145-3.743 7.498-7.306 7.895.574.497 1.085 1.47 1.085 2.963 0 2.141-.019 3.864-.019 4.391 0 .426.288.925 1.099.768C27.421 29.457 32 23.462 32 16.395c0-8.837-7.164-16-16-16z" />
        </symbol>
        <symbol id="arrow-right" viewBox="0 0 32 32"><path d="m19.414 27.414 10-10a2 2 0 0 0 0-2.828l-10-10a2 2 0 1 0-2.828 2.828L23.172 14H4a2 2 0 1 0 0 4h19.172l-6.586 6.586c-.39.39-.586.902-.586 1.414s.195 1.024.586 1.414a2 2 0 0 0 2.828 0z"/></symbol><symbol id="arrow-down" viewBox="0 0 32 32"><path d="m27.414 19.414-10 10a2 2 0 0 1-2.828 0l-10-10a2 2 0 1 1 2.828-2.828L14 23.172V4a2 2 0 1 1 4 0v19.172l6.586-6.586c.39-.39.902-.586 1.414-.586s1.024.195 1.414.586a2 2 0 0 1 0 2.828z"/></symbol>
        <symbol id="icon-our-logo" viewBox="0 0 32 32"><path fill="var(--color1, #0d0060)" d="M32 16c0 8.837-7.163 16-16 16S0 24.837 0 16 7.163 0 16 0s16 7.163 16 16z"/><path fill="var(--color2, #fff)" d="M9.398 20.473h-2.2c-.077 0-.115-.028-.115-.083 0-.025.018-.071.054-.137s.078-.121.126-.164c.041-.038.107-.056.199-.056h2.2c.077 0 .116.028.116.083 0 .025-.018.071-.054.137s-.078.121-.126.164c-.041.038-.107.056-.199.056zm-1.286 3.238-.003-2.916c0-.064.021-.107.065-.126a.503.503 0 0 1 .204-.032c.1 0 .17.011.21.032.041.02.062.062.062.126v2.632a.272.272 0 0 1-.054.18.69.69 0 0 1-.193.153.435.435 0 0 1-.196.067c-.063 0-.094-.038-.094-.116zm3.948-3.679h1.447c.077 0 .116.028.116.083a.646.646 0 0 1-.182.3h-.001c-.041.038-.107.056-.196.056h-1.551a.47.47 0 0 1-.053-.003h.002a.079.079 0 0 1-.035-.024.092.092 0 0 1-.013-.054c0-.066.052-.142.156-.228a.49.49 0 0 1 .309-.132zm-.462 3.652V22.36c0-.064.021-.107.064-.126a.513.513 0 0 1 .207-.032c.1 0 .17.011.21.032.039.02.059.062.059.126v.889c0 .073.037.11.11.11h1.313c.077 0 .116.028.116.083a.39.39 0 0 1-.054.14.61.61 0 0 1-.126.164c-.041.036-.107.054-.199.054h-1.606c-.063 0-.094-.038-.094-.116zm0-1.753v-1.136c0-.064.021-.107.064-.129a.513.513 0 0 1 .207-.032c.1 0 .17.011.21.032.039.02.059.063.059.129v.695c0 .073.037.11.11.11h1.093c.077 0 .116.028.116.083a.663.663 0 0 1-.18.3c-.041.038-.107.056-.199.056h-1.37c-.073 0-.11-.037-.11-.11zm4.412 1.042-.15.454a.622.622 0 0 1-.195.287l-.001.001a.488.488 0 0 1-.314.113.108.108 0 0 1-.072-.024c-.018-.014-.027-.036-.027-.064 0-.011.004-.027.011-.048l.258-.738a.316.316 0 0 1 .04-.086.113.113 0 0 1 .058-.045h.001a.325.325 0 0 1 .07-.016c.027-.002.059-.003.091-.003h.018-.001a.982.982 0 0 1 .158.011c.027.005.046.015.056.03.011.012.016.03.016.054a.301.301 0 0 1-.016.078zm.884-2.909 1.144 3.327c.012.057.019.09.019.097 0 .077-.045.153-.134.228-.09.073-.168.11-.236.11-.059 0-.105-.046-.137-.137l-1.117-3.26a2.075 2.075 0 0 1-.027-.129c0-.079.049-.157.148-.234.1-.079.177-.118.231-.118.03 0 .052.008.064.024a.283.283 0 0 1 .046.091zm-.049 2.576h-1.09c-.068 0-.102-.029-.102-.089 0-.016.004-.034.011-.054l.551-1.646c.025-.07.054-.105.086-.105.029 0 .054.018.075.054.021.034.045.09.07.166.047.145.07.253.07.325a.51.51 0 0 1-.027.158l-.209.639a.097.097 0 0 0-.005.038c0 .048.028.073.083.073h.279c.091 0 .153.005.185.013s.058.034.078.075a.541.541 0 0 1 .043.14.673.673 0 0 1 .019.123c0 .059-.038.089-.116.089zm3.376-.72c.018.075.027.171.027.287v1.235a.32.32 0 0 1-.054.199.603.603 0 0 1-.304.185c-.063 0-.094-.038-.094-.116v-2.543c0-.021.005-.038.016-.051a.049.049 0 0 1 .04-.021c.027 0 .054.027.081.081.029.054.079.168.15.344.075.188.121.321.137.4zm.661 1.222-1.069-2.779a.243.243 0 0 1-.021-.099c0-.043.017-.083.051-.121a.41.41 0 0 1 .164-.118.437.437 0 0 1 .159-.046c.039 0 .07.009.091.027a.235.235 0 0 1 .064.099l.908 2.441a.66.66 0 0 1 .048.215.518.518 0 0 1-.032.161 1.48 1.48 0 0 1-.126.258c-.038.059-.078.089-.121.089-.021 0-.041-.009-.059-.027s-.037-.051-.056-.099zm1.434-1.257-.561 1.458a.765.765 0 0 1-.279.352c-.123.088-.219.132-.287.132-.054 0-.081-.025-.081-.075 0-.021.009-.053.027-.094l1.098-2.911c.032-.066.058-.104.078-.113a.066.066 0 0 1 .032-.008c.041 0 .067.035.078.105.011.063.016.208.016.435 0 .141-.008.266-.024.373a1.458 1.458 0 0 1-.097.346zm.821-1.791v3.333c0 .088-.018.153-.054.196a.573.573 0 0 1-.193.142.482.482 0 0 1-.201.062c-.061 0-.091-.038-.091-.116v-3.333a.28.28 0 0 1 .054-.18.663.663 0 0 1 .193-.15.435.435 0 0 1 .199-.07c.063 0 .094.038.094.115z"/><path fill="var(--color3, #ff7a00)" d="M15.923 17.71h-3.936v-6.902h3.85v.797h-2.918v2.083h2.803v.806h-2.803v2.41h3.005v.806zm1.198-.01h-.442v-3.446h.442V17.7zm2.764-1.094h-1.714c.013.106.04.206.082.302a.74.74 0 0 0 .191.249l.001.001c.08.074.184.131.312.173s.286.062.475.062a1.925 1.925 0 0 0 .455-.102l-.038.011c.061-.022.117-.048.168-.077v.346a1.593 1.593 0 0 1-.451.147l-.01.001a1.763 1.763 0 0 1-.881-.071l.012.004a1.106 1.106 0 0 1-.326-.173 1.17 1.17 0 0 1-.336-.432 1.444 1.444 0 0 1-.13-.614c0-.358.104-.646.312-.864.211-.221.509-.331.893-.331.275 0 .499.086.672.259.173.17.274.418.302.744h.01v.365zm-1.723-.365h1.262l.001-.027a.696.696 0 0 0-.026-.189l.001.005a.584.584 0 0 0-.092-.213l.001.002a.498.498 0 0 0-.166-.157l-.002-.001a.486.486 0 0 0-.254-.062.745.745 0 0 0-.494.168c-.131.109-.208.267-.23.475zm4.749-1.987-1.19 3.451h-.538l-1.195-3.451h.499l.96 2.832h.024l.955-2.832h.485zm2.304 2.352h-1.714c.013.106.04.206.082.302a.74.74 0 0 0 .191.249l.001.001c.08.074.184.131.312.173s.286.062.475.062a1.925 1.925 0 0 0 .455-.102l-.038.011c.061-.022.117-.048.168-.077v.346a1.593 1.593 0 0 1-.451.147l-.01.001a1.763 1.763 0 0 1-.881-.071l.012.004a1.106 1.106 0 0 1-.326-.173 1.17 1.17 0 0 1-.336-.432 1.444 1.444 0 0 1-.13-.614c0-.358.104-.646.312-.864.211-.221.509-.331.893-.331.275 0 .499.086.672.259.173.17.274.418.302.744h.01v.365zm-1.723-.365h1.262l.001-.027a.696.696 0 0 0-.026-.189l.001.005a.584.584 0 0 0-.092-.213l.001.002a.498.498 0 0 0-.166-.157l-.002-.001a.486.486 0 0 0-.254-.062.745.745 0 0 0-.494.168c-.131.109-.208.267-.23.475zm4.259 1.449h-.418v-1.306c0-.08-.002-.16-.005-.24a.766.766 0 0 0-.045-.236l.002.005a.37.37 0 0 0-.129-.167l-.001-.001a.447.447 0 0 0-.254-.086c-.154-.01-.293.054-.418.192s-.214.314-.269.528a1.51 1.51 0 0 0-.044.34v.97h-.413v-2.395h.413v.547h.014a.998.998 0 0 1 .211-.356.871.871 0 0 1 .23-.168.739.739 0 0 1 .35-.077c.224 0 .408.069.552.206.147.134.221.322.221.562v1.68z"/><path fill="var(--color2, #fff)" d="M7.615 13.593c0 .096.048.227.144.393l2.081 3.533a.726.726 0 0 1 .118.353c0 .183-.107.345-.321.484-.209.14-.397.209-.563.209-.175 0-.325-.107-.451-.321L6.3 14.331a.777.777 0 0 1-.131-.393c0-.096.035-.207.105-.334 1.374-2.434 2.129-3.727 2.264-3.88.118-.131.294-.253.53-.366.24-.113.428-.17.563-.17.14 0 .209.068.209.203 0 .083-.044.203-.131.36l-1.917 3.376c-.118.209-.177.364-.177.465zM6.247 15.87c-.711 1.295-1.134 2.011-1.269 2.146a1.802 1.802 0 0 1-.523.373c-.227.118-.406.177-.537.177-.144 0-.22-.061-.229-.183 0-.092.044-.218.131-.38l1.734-3.095c.1-.175.209-.262.327-.262.114 0 .225.087.334.262s.163.347.163.517a.874.874 0 0 1-.131.445zm-.818-3.128L3.905 10.19a.487.487 0 0 1-.098-.268c0-.188.122-.355.366-.504.244-.153.449-.229.615-.229.144 0 .268.089.373.268l1.289 2.264a.77.77 0 0 1 .118.366c0 .148-.079.351-.236.608-.175.284-.336.425-.484.425-.087 0-.159-.031-.216-.092s-.124-.157-.203-.288zm7.073-3.271v8.12c0 .214-.046.373-.137.478a1.433 1.433 0 0 1-.464.347c-.196.1-.358.151-.484.151-.153 0-.229-.094-.229-.281v-8.12c0-.183.046-.329.137-.438a1.62 1.62 0 0 1 .465-.366c.196-.113.358-.17.484-.17.153 0 .229.094.229.281z"/><path fill="var(--color1, #0d0060)" d="m7.759 13.985-.087.05v.001l.086-.051zm2.08 3.534.086-.05-.086.051zm-.202.837-.055-.084-.001.001.056.083zm-1.014-.111.086-.051-.086.051zM6.3 14.332l.086-.051v-.001l-.085.052zm-.026-.726-.087-.049v.001l.088.048zm2.263-3.88-.074-.067-.001.001.075.066zm.53-.366-.043-.09h-.001l.043.09zm.642.392.087.049V9.8l-.087-.049zm-1.917 3.376-.087-.049.087.049zM6.247 15.87l-.086-.051-.001.001-.001.001.088.048zm-1.269 2.146-.071-.071-.004.004.074.067zm-.523.373L4.41 18.3h-.001l.046.089zm-.766-.007h-.1v.008l.1-.007zm.131-.379-.087-.049v.002l.088.047zm1.734-3.095-.087-.05v.001l.087.049zm-.125-2.166-.086.051.086-.051zM3.905 10.19l.086-.051-.002-.002-.002-.002-.083.056zm.268-.772.052.085.001-.001-.053-.085zm.988.04.087-.05-.001-.001-.086.05zm1.289 2.264.087-.049v-.001l-.087.05zm-.118.974.085.052-.085-.052zm1.183.897c0 .124.06.274.157.443l.173-.1c-.094-.163-.13-.274-.13-.342h-.2zm.158.443 2.081 3.533.172-.102-2.081-3.533-.172.101zm2.08 3.533a.639.639 0 0 1 .104.303h.2a.828.828 0 0 0-.131-.404l-.173.101zm.104.303c0 .137-.078.271-.275.4l.109.168c.23-.15.366-.339.366-.568h-.2zm-.276.401c-.201.134-.369.192-.507.192v.2c.193 0 .4-.081.618-.226l-.111-.166zm-.507.192c-.125 0-.248-.074-.365-.271l-.172.102c.136.23.314.37.537.37v-.2zm-.365-.271-2.323-3.913-.172.102 2.323 3.913.172-.102zM6.385 14.28a.674.674 0 0 1-.116-.341h-.2c0 .142.052.291.145.444l.171-.104zm-.116-.34c0-.073.027-.167.092-.285l-.175-.097a.81.81 0 0 0-.117.382h.2zm.092-.285a240.184 240.184 0 0 1 1.596-2.794c.189-.323.338-.574.449-.754.113-.184.181-.284.207-.315l-.15-.133a3.429 3.429 0 0 0-.228.342c-.112.182-.262.435-.451.758-.378.647-.91 1.58-1.597 2.797l.174.098zm2.251-3.862c.106-.118.27-.233.499-.343l-.087-.18c-.242.117-.431.245-.561.39l.149.134zm.498-.343c.237-.112.408-.16.52-.16v-.2c-.158 0-.363.065-.605.18l.085.181zm.52-.161c.055 0 .078.013.087.023s.022.029.022.08h.2c0-.084-.022-.165-.083-.224s-.142-.079-.227-.079v.2zm.109.103c0 .055-.032.156-.118.311l.175.097c.088-.158.143-.298.143-.408h-.2zm-.117.311-1.917 3.376.174.099 1.917-3.376-.174-.099zm-1.918 3.376c-.06.107-.107.203-.139.287a.666.666 0 0 0-.051.227h.2c0-.033.01-.083.038-.156.027-.071.069-.158.126-.26l-.174-.098zM6.16 15.822a55.567 55.567 0 0 1-.849 1.505c-.105.178-.192.319-.261.424-.07.107-.117.169-.143.194l.141.141c.042-.042.099-.12.168-.226.071-.108.16-.252.266-.432.212-.359.497-.863.852-1.511l-.175-.096zm-1.256 2.127a1.693 1.693 0 0 1-.495.351l.091.178c.237-.121.423-.252.552-.395l-.149-.134zm-.495.351c-.224.116-.385.165-.49.165v.2c.156 0 .353-.069.583-.188L4.41 18.3zm-.491.165c-.06 0-.089-.013-.103-.024-.011-.009-.024-.026-.026-.066l-.2.014a.283.283 0 0 0 .101.208c.063.05.143.068.228.068v-.2zm-.129-.083c0-.065.033-.173.119-.332l-.176-.095c-.089.164-.143.309-.143.427h.2zm.118-.33 1.734-3.095-.175-.098-1.734 3.095.175.098zm1.734-3.094c.096-.166.178-.212.24-.212v-.2c-.174 0-.309.129-.414.312l.173.1zm.24-.212c.058 0 .143.046.249.215l.17-.106c-.113-.18-.25-.309-.418-.309v.2zm.249.215a.873.873 0 0 1 .148.464h.2c0-.192-.062-.383-.179-.57l-.17.106zm.148.464a.766.766 0 0 1-.117.394l.172.101a.97.97 0 0 0 .145-.496h-.2zm-.763-2.734-1.524-2.552-.172.103 1.524 2.552.172-.103zm-1.527-2.557a.393.393 0 0 1-.081-.212h-.2c0 .11.043.219.116.325l.165-.113zm-.081-.212c0-.137.087-.278.318-.418l-.104-.171c-.257.156-.414.351-.414.589h.2zm.319-.419c.239-.149.424-.214.562-.214v-.2c-.194 0-.418.088-.668.244l.106.17zm.562-.214c.094 0 .191.056.287.219l.173-.101c-.114-.195-.265-.318-.459-.318v.2zm.286.218 1.289 2.264.174-.099-1.289-2.264-.174.099zm1.289 2.264a.682.682 0 0 1 .105.317h.2a.866.866 0 0 0-.131-.415l-.174.098zm.105.317c0 .119-.065.302-.221.556l.171.104c.159-.26.25-.483.25-.661h-.2zm-.221.556c-.085.137-.162.235-.233.296s-.125.082-.166.082v.2c.107 0 .207-.051.298-.131s.181-.196.271-.342l-.17-.105zm-.399.378a.182.182 0 0 1-.143-.06l-.147.136a.385.385 0 0 0 .289.124v-.2zm-.142-.06a1.648 1.648 0 0 1-.19-.271l-.171.103c.08.133.152.236.215.305l.147-.136zm6.659 5.106-.075-.066-.002.002.077.064zm-.465.347-.045-.089h-.001l.046.089zm-.575-8.689zm.464-.366.049.087h.002l-.05-.087zm.613.111v8.12h.2v-8.12h-.2zm0 8.119c0 .202-.044.333-.113.412l.15.132c.114-.131.162-.318.162-.544h-.2zm-.114.414c-.098.117-.24.225-.432.321l.089.179a1.53 1.53 0 0 0 .497-.372l-.154-.128zm-.433.322c-.191.098-.336.14-.439.14v.2c.15 0 .328-.058.53-.161l-.091-.178zm-.439.139c-.055 0-.08-.016-.094-.033-.018-.022-.035-.065-.035-.148h-.2c0 .105.021.202.08.274a.308.308 0 0 0 .249.107v-.2zm-.129-.181v-8.12h-.2v8.12h.2zm0-8.12c0-.167.041-.288.114-.374l-.153-.129a.758.758 0 0 0-.161.503h.2zm.114-.374c.104-.124.248-.239.437-.343l-.097-.175c-.204.113-.37.243-.493.389l.153.129zm.438-.344c.191-.111.334-.157.434-.157v-.2c-.153 0-.333.067-.534.184l.1.173zm.434-.157c.055 0 .08.016.094.033.018.022.035.065.035.148h.2a.424.424 0 0 0-.08-.274.307.307 0 0 0-.249-.107v.2z"/><path fill="var(--color2, #fff)" d="M5.5 6.65h5.8a.25.25 0 0 1 0 .5H5.5a.25.25 0 0 1 0-.5zM5.5 19.95h5.8a.25.25 0 0 1 0 .5H5.5a.25.25 0 0 1 0-.5z"/></symbol>
</svg>